<svg width="663" height="384" viewBox="0 0 663 384" fill="none" xmlns="http://www.w3.org/2000/svg">
<g id="Empty Unread">
<g id="Group 14">
<path id="Path" d="M526.5 157.662C526.5 157.662 493.364 151.295 450.551 138.124C408.85 125.296 355.982 128.413 331.249 130.919C306.517 133.425 218.485 150.342 166.605 132.172C114.724 114.002 80.324 108.05 60 108.05" stroke="#007E47" stroke-width="0.9104" stroke-linecap="round" stroke-linejoin="round"/>
<path id="Path_2" d="M526.5 157.662C526.5 157.662 493.364 151.295 450.551 138.124C408.85 125.296 355.982 128.413 331.249 130.919C306.517 133.425 218.485 150.342 166.605 132.172C114.724 114.002 80.324 108.05 60 108.05" stroke="#005A33"/>
<path id="Mask" fill-rule="evenodd" clip-rule="evenodd" d="M450.648 163.081C543.662 151.02 660 158.133 660 158.133L659.531 249.05H60V163.391C60 163.391 67.7125 166.174 171.135 176.071C274.557 185.968 357.636 175.143 450.648 163.081Z" fill="#00A25B"/>
<path id="Clip 1783" fill-rule="evenodd" clip-rule="evenodd" d="M270.818 207.08C392.313 198.242 480.879 210.868 530.367 217.812C578.865 224.617 656.806 227.178 659.905 227.278L660 227.281V270.05H60V227.281C130.399 227.281 149.323 215.918 270.818 207.08Z" fill="#B3E9D1"/>
</g>
<g id="Group">
<g id="Group 10">
<g id="Group 25">
<g id="Group 9">
<path id="Fill 1" fill-rule="evenodd" clip-rule="evenodd" d="M585.662 47.5796C585.662 71.5777 566.037 91.032 541.826 91.032C517.617 91.032 497.99 71.5777 497.99 47.5796C497.99 23.5815 517.617 4.1272 541.826 4.1272C566.037 4.1272 585.662 23.5815 585.662 47.5796Z" fill="#B3E9D1"/>
<path id="Fill 13" fill-rule="evenodd" clip-rule="evenodd" d="M579.577 32.533H428.999V24.6431H571.916L579.577 32.533Z" fill="#E6F8F0"/>
<path id="Stroke 3" fill-rule="evenodd" clip-rule="evenodd" d="M585.662 47.5796C585.662 71.5777 566.037 91.032 541.826 91.032C517.617 91.032 497.99 71.5777 497.99 47.5796C497.99 23.5815 517.617 4.1272 541.826 4.1272C566.037 4.1272 585.662 23.5815 585.662 47.5796Z" stroke="#007E47" stroke-width="0.9104"/>
<path id="Stroke 7" fill-rule="evenodd" clip-rule="evenodd" d="M641.539 92.6755H530.547C518.995 92.6755 505.02 94.9406 493.735 92.1308C490.871 91.4137 479.18 86.5139 480.189 81.7266C481.778 74.2069 494.209 83.7492 495.944 86.9225C499.184 81.9002 504.119 78.7819 509.864 78.3359C511.843 78.1785 524.26 79.7714 523.633 83.7042C525.077 74.6442 528.117 65.6129 533.939 58.8553C539.753 52.0978 548.693 47.9888 557.082 49.9452C565.463 51.9004 572.386 60.8792 571.117 69.9692C572.126 64.2162 578.153 60.1009 583.449 61.5501C587.063 62.5483 589.814 66.0052 590.647 69.8718C591.999 60.0484 598.867 51.1308 607.768 48.0413C618.289 44.3883 630.674 48.8421 637.405 58.2507C644.129 67.6605 646.544 82.1113 641.539 92.6755Z" fill="white" stroke="#005A33" stroke-linecap="round" stroke-linejoin="round"/>
</g>
<g id="Group 24">
<g id="Group 15">
<mask id="mask0_4048_38531" style="mask-type:luminance" maskUnits="userSpaceOnUse" x="429" y="24" width="151" height="9">
<path id="Clip 14" fill-rule="evenodd" clip-rule="evenodd" d="M429 24.6431H579.577V32.533H429V24.6431Z" fill="white"/>
</mask>
<g mask="url(#mask0_4048_38531)">
<path id="Fill 13_2" fill-rule="evenodd" clip-rule="evenodd" d="M579.577 32.533H428.999V24.6431H571.916L579.577 32.533Z" fill="#E6F8F0"/>
</g>
</g>
<path id="Fill 16" fill-rule="evenodd" clip-rule="evenodd" d="M562.271 29.3585H574.833L572.281 32.3419H588.999L594.058 29.3585H606.749C608.065 29.3585 608.434 27.5048 607.229 26.9563C604.974 25.9313 603.352 25.3317 603.352 25.3317L603.245 24.0933H595.842L590.976 24.7335H567.025L561.626 20.5195L557.089 21.0065L557.966 25.6891C558.364 27.819 560.171 29.3585 562.271 29.3585Z" fill="#007E47"/>
<path id="Stroke 18" fill-rule="evenodd" clip-rule="evenodd" d="M562.271 29.3585H574.833L572.281 32.3419H588.999L594.058 29.3585H606.749C608.065 29.3585 608.434 27.5048 607.229 26.9563C604.974 25.9313 603.352 25.3317 603.352 25.3317L603.245 24.0933H595.842L590.976 24.7335H567.025L561.626 20.5195L557.089 21.0065L557.966 25.6891C558.364 27.819 560.171 29.3585 562.271 29.3585Z" stroke="#007E47" stroke-width="0.9104" stroke-linecap="round" stroke-linejoin="round"/>
<g id="Group 23">
<path id="Stroke 22" d="M571.975 32.5867H469.56" stroke="#007E47" stroke-width="0.9104" stroke-linecap="round" stroke-linejoin="round"/>
</g>
</g>
</g>
<g id="Group 2">
<g id="Group 72">
<path id="Path 12 Copy 3" d="M292.5 322.55L659.25 321.987" stroke="#B3E9D1"/>
<path id="Path 12 Copy 4" d="M358.5 340.55H544.5" stroke="#B3E9D1"/>
<path id="Path 12 Copy 4_2" d="M562.5 340.55H661.5" stroke="#B3E9D1"/>
<path id="Path 12 Copy 5" d="M58.5 361.175L659.25 360.987" stroke="#B3E9D1"/>
<path id="Path 12 Copy 9" d="M235.5 285.05L659.25 285.987" stroke="#B3E9D1"/>
<path id="Path 12 Copy 6" d="M58.5 379.175L214.5 379.55" stroke="#B3E9D1"/>
<path id="Path 12 Copy 6_2" d="M235.5 379.55H661.5" stroke="#B3E9D1"/>
<path id="Path 12 Copy 10" d="M274.5 304.55H448.5" stroke="#B3E9D1"/>
<path id="Path 12 Copy 10_2" d="M466.5 304.55H661.5" stroke="#B3E9D1"/>
</g>
<ellipse id="Oval" cx="203.25" cy="342.8" rx="143.25" ry="9.75" fill="#B3E9D1"/>
<g id="Group 60 Copy 3">
<g id="Group 60 Copy">
<g id="Group 59">
<g id="Rectangle">
<g id="Mask_2">
<mask id="path-24-outside-1_4048_38531" maskUnits="userSpaceOnUse" x="78" y="202.55" width="147" height="144" fill="black">
<rect fill="white" x="78" y="202.55" width="147" height="144"/>
<path fill-rule="evenodd" clip-rule="evenodd" d="M153 343.515C190.481 342.34 220.5 311.913 220.5 274.55C220.5 237.187 190.481 206.76 153 205.585V205.55H150.75H81V274.55V343.55H150.75H153V343.515Z"/>
</mask>
<g filter="url(#filter0_i_4048_38531)">
<path fill-rule="evenodd" clip-rule="evenodd" d="M153 343.515C190.481 342.34 220.5 311.913 220.5 274.55C220.5 237.187 190.481 206.76 153 205.585V205.55H150.75H81V274.55V343.55H150.75H153V343.515Z" fill="#B3E9D1"/>
</g>
<path d="M153 343.515L152.906 340.516L150 340.607V343.515H153ZM153 205.585H150V208.492L152.906 208.584L153 205.585ZM153 205.55H156V202.55H153V205.55ZM81 205.55V202.55H78V205.55H81ZM81 343.55H78V346.55H81V343.55ZM153 343.55V346.55H156V343.55H153ZM217.5 274.55C217.5 310.258 188.802 339.391 152.906 340.516L153.094 346.513C192.16 345.288 223.5 313.567 223.5 274.55H217.5ZM152.906 208.584C188.802 209.709 217.5 238.841 217.5 274.55H223.5C223.5 235.532 192.16 203.811 153.094 202.586L152.906 208.584ZM150 205.55V205.585H156V205.55H150ZM150.75 208.55H153V202.55H150.75V208.55ZM81 208.55H150.75V202.55H81V208.55ZM84 274.55V205.55H78V274.55H84ZM84 343.55V274.55H78V343.55H84ZM150.75 340.55H81V346.55H150.75V340.55ZM153 340.55H150.75V346.55H153V340.55ZM150 343.515V343.55H156V343.515H150Z" fill="#005A33" mask="url(#path-24-outside-1_4048_38531)"/>
</g>
<mask id="mask1_4048_38531" style="mask-type:luminance" maskUnits="userSpaceOnUse" x="78" y="202" width="146" height="145">
<g id="Mask_3">
<mask id="path-26-outside-2_4048_38531" maskUnits="userSpaceOnUse" x="78" y="202.55" width="147" height="144" fill="black">
<rect fill="white" x="78" y="202.55" width="147" height="144"/>
<path fill-rule="evenodd" clip-rule="evenodd" d="M153 343.515C190.481 342.34 220.5 311.913 220.5 274.55C220.5 237.187 190.481 206.76 153 205.585V205.55H150.75H81V274.55V343.55H150.75H153V343.515Z"/>
</mask>
<path fill-rule="evenodd" clip-rule="evenodd" d="M153 343.515C190.481 342.34 220.5 311.913 220.5 274.55C220.5 237.187 190.481 206.76 153 205.585V205.55H150.75H81V274.55V343.55H150.75H153V343.515Z" fill="white"/>
<path d="M153 343.515L152.906 340.516L150 340.607V343.515H153ZM153 205.585H150V208.492L152.906 208.584L153 205.585ZM153 205.55H156V202.55H153V205.55ZM81 205.55V202.55H78V205.55H81ZM81 343.55H78V346.55H81V343.55ZM153 343.55V346.55H156V343.55H153ZM217.5 274.55C217.5 310.258 188.802 339.391 152.906 340.516L153.094 346.513C192.16 345.288 223.5 313.567 223.5 274.55H217.5ZM152.906 208.584C188.802 209.709 217.5 238.841 217.5 274.55H223.5C223.5 235.532 192.16 203.811 153.094 202.586L152.906 208.584ZM150 205.55V205.585H156V205.55H150ZM150.75 208.55H153V202.55H150.75V208.55ZM81 208.55H150.75V202.55H81V208.55ZM84 274.55V205.55H78V274.55H84ZM84 343.55V274.55H78V343.55H84ZM150.75 340.55H81V346.55H150.75V340.55ZM153 340.55H150.75V346.55H153V340.55ZM150 343.515V343.55H156V343.515H150Z" fill="white" mask="url(#path-26-outside-2_4048_38531)"/>
</g>
</mask>
<g mask="url(#mask1_4048_38531)">
<path id="Path_3" d="M141.584 219.618C112.392 195.123 68.6543 199.188 43.8929 228.697C19.1315 258.207 22.7234 301.986 51.9155 326.481C59.3279 332.701 67.6781 337.079 76.4174 339.667" stroke="#007E47"/>
<path id="Path Copy" d="M170.567 228.682C147.106 198.653 103.478 193.535 73.1228 217.251C42.7671 240.968 37.1782 284.537 60.6396 314.567C66.5969 322.191 73.8543 328.21 81.8645 332.559" stroke="#007E47"/>
<path id="Shape" d="M175.769 212.88L174.993 214.164L175.769 212.88ZM147.342 203.075L147.525 201.586L146.036 201.403L145.853 202.892L147.342 203.075ZM192.619 227.045L193.605 228.176L194.736 227.19L193.75 226.059L192.619 227.045ZM190.358 229.016L189.227 230.002L190.213 231.133L191.344 230.147L190.358 229.016ZM174.216 215.447L174.993 214.164L174.993 214.164L174.216 215.447ZM146.976 206.053L145.487 205.87L145.305 207.359L146.793 207.541L146.976 206.053ZM176.456 332.973L175.178 333.759L175.965 335.036L177.242 334.25L176.456 332.973ZM209.469 281.733L210.958 281.915L211.141 280.427L209.652 280.244L209.469 281.733ZM174.883 330.418L174.096 329.141L172.819 329.927L173.605 331.204L174.883 330.418ZM206.491 281.367L206.674 279.878L205.185 279.695L205.003 281.184L206.491 281.367ZM176.546 211.597C167.958 206.4 158.144 202.89 147.525 201.586L147.159 204.564C157.351 205.815 166.76 209.182 174.993 214.164L176.546 211.597ZM193.75 226.059C188.838 220.425 183.044 215.529 176.546 211.597L174.993 214.164C181.223 217.934 186.778 222.628 191.489 228.031L193.75 226.059ZM191.344 230.147L193.605 228.176L191.633 225.914L189.372 227.886L191.344 230.147ZM173.44 216.73C179.402 220.338 184.719 224.831 189.227 230.002L191.489 228.031C186.778 222.628 181.223 217.934 174.993 214.164L173.44 216.73ZM146.793 207.541C156.557 208.74 165.563 211.964 173.44 216.73L174.993 214.164C166.76 209.182 157.351 205.815 147.159 204.564L146.793 207.541ZM145.853 202.892L145.487 205.87L148.465 206.235L148.831 203.258L145.853 202.892ZM177.242 334.25C195.235 323.171 208.197 304.404 210.958 281.915L207.98 281.55C205.336 303.088 192.926 321.07 175.669 331.695L177.242 334.25ZM173.605 331.204L175.178 333.759L177.733 332.186L176.16 329.631L173.605 331.204ZM205.003 281.184C202.475 301.772 190.615 318.969 174.096 329.141L175.669 331.695C192.926 321.07 205.336 303.088 207.98 281.55L205.003 281.184ZM209.652 280.244L206.674 279.878L206.309 282.856L209.286 283.221L209.652 280.244Z" fill="#007E47"/>
</g>
</g>
<g id="Oval Copy 7">
<g filter="url(#filter1_i_4048_38531)">
<ellipse cx="75.75" cy="274.55" rx="69.75" ry="69" fill="white"/>
</g>
<path d="M75.75 345.05C115.085 345.05 147 313.501 147 274.55C147 235.598 115.085 204.05 75.75 204.05C36.415 204.05 4.5 235.598 4.5 274.55C4.5 313.501 36.415 345.05 75.75 345.05Z" stroke="#005A33"/>
</g>
<g id="Oval Copy 7_2">
<g filter="url(#filter2_i_4048_38531)">
<ellipse cx="75.75" cy="274.55" rx="53.25" ry="52.5" transform="rotate(-40 75.75 274.55)" fill="white"/>
</g>
<path d="M110.461 315.916C133.608 296.493 136.874 262.218 117.691 239.357C98.508 216.496 64.1874 213.76 41.0395 233.183C17.8916 252.607 14.6261 286.881 33.8091 309.742C52.992 332.604 87.3126 335.339 110.461 315.916Z" stroke="#005A33"/>
</g>
<g id="Oval Copy 7_3">
<g filter="url(#filter3_i_4048_38531)">
<ellipse cx="75.75" cy="274.55" rx="36.75" ry="36" transform="rotate(-50 75.75 274.55)" fill="white"/>
</g>
<path d="M104.477 298.655C118.037 282.494 116.224 258.58 100.337 245.249C84.4491 231.918 60.5833 234.285 47.0233 250.445C33.4634 266.606 35.2759 290.52 51.1634 303.851C67.0509 317.182 90.9167 314.815 104.477 298.655Z" stroke="#007E47"/>
</g>
<path id="Oval Copy 7_4" d="M75.75 298.55C89.3723 298.55 100.5 287.851 100.5 274.55C100.5 261.249 89.3723 250.55 75.75 250.55C62.1277 250.55 51 261.249 51 274.55C51 287.851 62.1277 298.55 75.75 298.55Z" stroke="#005A33"/>
<g id="Oval Copy 7_5">
<g filter="url(#filter4_i_4048_38531)">
<ellipse cx="75.75" cy="274.55" rx="9.75" ry="9" transform="rotate(-40 75.75 274.55)" fill="white"/>
</g>
<path d="M82.4993 282.594C87.1706 278.674 88.1668 271.846 84.368 267.319C80.5693 262.792 73.672 262.587 69.0008 266.507C64.3295 270.426 63.3333 277.254 67.132 281.781C70.9308 286.309 77.828 286.513 82.4993 282.594Z" stroke="#005A33"/>
</g>
</g>
</g>
</g>
</g>
</g>
</g>
<g id="Group 16">
<path id="Rectangle_2" d="M204.689 264.667C206.517 261.501 210.565 260.417 213.731 262.244C216.463 263.822 217.702 267.109 216.691 270.098L209.097 292.544C207.426 297.48 201.913 299.957 197.113 297.927C192.149 295.828 190.147 289.855 192.841 285.188L204.689 264.667Z" fill="white" stroke="#007E47"/>
<path id="Rectangle_3" d="M213.092 260.799C216.405 261.564 218.472 264.87 217.706 268.184C216.941 271.498 213.635 273.564 210.321 272.799L183.09 266.512C179.776 265.747 177.71 262.44 178.475 259.127C179.24 255.813 182.547 253.747 185.861 254.512L213.092 260.799Z" fill="white" stroke="#007E47"/>
<g id="Path 2">
<path id="Mask_4" d="M189.634 268.502C173.581 271.106 163.421 287.165 167.943 302.786L178.898 340.632C179.338 342.153 181.268 342.615 182.349 341.457L214.026 307.511C214.676 306.814 214.817 305.782 214.376 304.936L197.426 272.409C195.943 269.563 192.802 267.988 189.634 268.502Z" fill="white" stroke="#007E47"/>
<mask id="mask2_4048_38531" style="mask-type:luminance" maskUnits="userSpaceOnUse" x="165" y="266" width="52" height="78">
<path id="Mask_5" d="M189.634 268.502C173.581 271.106 163.421 287.165 167.943 302.786L178.898 340.632C179.338 342.153 181.268 342.615 182.349 341.457L214.026 307.511C214.676 306.814 214.817 305.782 214.376 304.936L197.426 272.409C195.943 269.563 192.802 267.988 189.634 268.502Z" fill="white" stroke="white"/>
</mask>
<g mask="url(#mask2_4048_38531)">
<path id="Path 2_2" fill-rule="evenodd" clip-rule="evenodd" d="M181.474 325.819L178.369 299.424C178.369 299.424 186.132 293.214 186.132 288.556C186.132 283.898 186.132 276.135 186.132 276.135H170.605L159.737 294.766L175.263 325.819H181.474Z" fill="#B3E9D1"/>
</g>
</g>
<g id="Group 54">
<g id="Group 53">
<g id="Group 52">
<g id="Path 13 Copy">
<g filter="url(#filter5_i_4048_38531)">
<path fill-rule="evenodd" clip-rule="evenodd" d="M190.053 325.437C183.026 328.885 185.316 339.44 193.14 339.666L207.352 340.077C218.364 340.396 228.866 335.436 235.616 326.729L257.271 298.793C259.219 296.28 256.433 292.861 253.578 294.262L190.053 325.437Z" fill="white"/>
</g>
<path d="M189.392 324.09C180.96 328.228 183.708 340.894 193.097 341.166L207.308 341.577C218.799 341.909 229.758 336.733 236.801 327.648L258.457 299.712C261.379 295.943 257.199 290.814 252.918 292.915L189.392 324.09Z" stroke="#007E47"/>
</g>
<g id="Path 13">
<g filter="url(#filter6_i_4048_38531)">
<path fill-rule="evenodd" clip-rule="evenodd" d="M179.368 326.776C172.513 330.341 174.875 340.69 182.599 340.927L197.715 341.39C209.087 341.739 219.899 336.458 226.617 327.276L248.646 297.161C250.519 294.601 247.655 291.265 244.841 292.728L179.368 326.776Z" fill="white"/>
</g>
<path d="M178.676 325.446C170.45 329.723 173.285 342.142 182.553 342.426L197.669 342.889C209.535 343.253 220.818 337.743 227.827 328.161L249.857 298.047C252.666 294.207 248.37 289.202 244.149 291.398L178.676 325.446Z" stroke="#007E47"/>
</g>
<g id="Rectangle_4">
<g id="Group 5">
<path id="Mask_6" d="M238.257 303.142L236.641 301.701L238.557 300.694L256.146 291.454C258.136 290.408 260.594 290.993 261.901 292.823L289.463 331.425L289.586 331.445C290.059 331.523 290.737 331.635 291.56 331.772C293.206 332.047 295.431 332.425 297.747 332.836C300.061 333.247 302.473 333.691 304.491 334.101C306.458 334.5 308.182 334.89 309.026 335.199C310.395 335.701 311.27 336.523 311.705 337.518C311.956 338.093 312.008 338.712 311.834 339.305C311.668 339.875 311.324 340.316 310.956 340.632C310.242 341.245 309.268 341.546 308.367 341.546H283.05C281.946 341.546 280.88 341.139 280.056 340.405L238.257 303.142Z" fill="#B3E9D1" stroke="#007E47"/>
<mask id="mask3_4048_38531" style="mask-type:luminance" maskUnits="userSpaceOnUse" x="234" y="289" width="80" height="55">
<path id="Mask_7" d="M238.257 303.142L236.641 301.701L238.557 300.694L256.146 291.454C258.136 290.408 260.594 290.993 261.901 292.823L289.463 331.425L289.586 331.445C290.059 331.523 290.737 331.635 291.56 331.772C293.206 332.047 295.431 332.425 297.747 332.836C300.061 333.247 302.473 333.691 304.491 334.101C306.458 334.5 308.182 334.89 309.026 335.199C310.395 335.701 311.27 336.523 311.705 337.518C311.956 338.093 312.008 338.712 311.834 339.305C311.668 339.875 311.324 340.316 310.956 340.632C310.242 341.245 309.268 341.546 308.367 341.546H283.05C281.946 341.546 280.88 341.139 280.056 340.405L238.257 303.142Z" fill="white" stroke="white"/>
</mask>
<g mask="url(#mask3_4048_38531)">
<path id="Rectangle_5" d="M247.383 310.611L246.047 311.536L247.076 312.794L282.01 355.492L282.653 356.277L283.62 355.973L323.212 343.552L325.872 342.718L323.71 340.958L269.368 296.708L268.494 295.996L267.567 296.638L247.383 310.611Z" fill="#B3E9D1" stroke="#007E47"/>
</g>
</g>
<g id="Group 5_2">
<path id="Mask_8" d="M225.836 303.142L224.22 301.701L226.136 300.694L243.724 291.454C245.715 290.408 248.173 290.993 249.479 292.823L277.042 331.425L277.165 331.445C277.638 331.523 278.316 331.635 279.139 331.772C280.785 332.047 283.01 332.425 285.326 332.836C287.64 333.247 290.052 333.691 292.07 334.101C294.037 334.5 295.761 334.89 296.605 335.199C297.973 335.701 298.848 336.523 299.284 337.518C299.535 338.093 299.587 338.712 299.413 339.305C299.246 339.875 298.903 340.316 298.534 340.632C297.821 341.245 296.847 341.546 295.946 341.546H270.629C269.525 341.546 268.459 341.139 267.635 340.405L225.836 303.142Z" fill="white" stroke="#007E47"/>
<mask id="mask4_4048_38531" style="mask-type:luminance" maskUnits="userSpaceOnUse" x="221" y="289" width="81" height="55">
<path id="Mask_9" d="M225.836 303.142L224.22 301.701L226.136 300.694L243.724 291.454C245.715 290.408 248.173 290.993 249.479 292.823L277.042 331.425L277.165 331.445C277.638 331.523 278.316 331.635 279.139 331.772C280.785 332.047 283.01 332.425 285.326 332.836C287.64 333.247 290.052 333.691 292.07 334.101C294.037 334.5 295.761 334.89 296.605 335.199C297.973 335.701 298.848 336.523 299.284 337.518C299.535 338.093 299.587 338.712 299.413 339.305C299.246 339.875 298.903 340.316 298.534 340.632C297.821 341.245 296.847 341.546 295.946 341.546H270.629C269.525 341.546 268.459 341.139 267.635 340.405L225.836 303.142Z" fill="white" stroke="white"/>
</mask>
<g mask="url(#mask4_4048_38531)">
<g id="Rectangle_6">
<g filter="url(#filter7_i_4048_38531)">
<path fill-rule="evenodd" clip-rule="evenodd" d="M235.816 311.845L256 297.871L310.342 342.121L270.75 354.542L235.816 311.845Z" fill="white"/>
</g>
<path d="M234.962 310.611L233.626 311.536L234.655 312.794L269.589 355.492L270.231 356.277L271.199 355.973L310.791 343.552L313.451 342.718L311.289 340.958L256.947 296.708L256.073 295.996L255.146 296.638L234.962 310.611Z" stroke="#007E47"/>
</g>
</g>
</g>
</g>
</g>
</g>
</g>
<g id="Group 13">
<g id="Group 8">
<g id="Oval_2">
<g id="Mask_10">
<g filter="url(#filter8_i_4048_38531)">
<circle cx="169.053" cy="282.345" r="9.31579" fill="white"/>
</g>
<circle cx="169.053" cy="282.345" r="9.81579" stroke="#007E47"/>
</g>
<mask id="mask5_4048_38531" style="mask-type:luminance" maskUnits="userSpaceOnUse" x="156" y="270" width="26" height="25">
<circle id="Mask_11" cx="169.053" cy="282.345" r="9.81579" fill="white" stroke="white"/>
</mask>
<g mask="url(#mask5_4048_38531)">
</g>
</g>
<rect id="Rectangle_7" x="154.117" y="258.498" width="38.2632" height="10.3158" rx="2.05263" fill="white" stroke="#007E47"/>
<g id="Rectangle_8">
<g filter="url(#filter9_i_4048_38531)">
<path fill-rule="evenodd" clip-rule="evenodd" d="M157.032 259.122C159.552 257.668 162.774 258.531 164.228 261.051L171.615 273.845C173.736 277.519 172.24 282.221 168.385 283.992C164.333 285.854 159.581 283.626 158.421 279.32L154.579 265.055C153.959 262.75 154.965 260.316 157.032 259.122Z" fill="white"/>
</g>
<path d="M165.528 260.301C163.659 257.063 159.519 255.954 156.282 257.823C153.626 259.357 152.333 262.484 153.131 265.445L156.973 279.71C158.374 284.912 164.116 287.605 169.011 285.355C173.669 283.215 175.477 277.534 172.914 273.095L165.528 260.301Z" stroke="#007E47"/>
</g>
</g>
<g id="Group 6">
<g id="Oval_3">
<path id="Mask_12" d="M186.908 282.293C191.14 282.293 194.849 279.969 197.446 276.455C200.044 272.94 201.605 268.156 201.605 262.938C201.605 257.719 200.044 252.935 197.446 249.42C194.849 245.906 191.14 243.582 186.908 243.582C182.676 243.582 178.967 245.906 176.37 249.42C173.772 252.935 172.211 257.719 172.211 262.938C172.211 268.156 173.772 272.94 176.37 276.455C178.967 279.969 182.676 282.293 186.908 282.293Z" fill="white" stroke="#007E47"/>
<mask id="mask6_4048_38531" style="mask-type:luminance" maskUnits="userSpaceOnUse" x="170" y="242" width="34" height="42">
<path id="Mask_13" d="M186.908 282.293C191.14 282.293 194.849 279.969 197.446 276.455C200.044 272.94 201.605 268.156 201.605 262.938C201.605 257.719 200.044 252.935 197.446 249.42C194.849 245.906 191.14 243.582 186.908 243.582C182.676 243.582 178.967 245.906 176.37 249.42C173.772 252.935 172.211 257.719 172.211 262.938C172.211 268.156 173.772 272.94 176.37 276.455C178.967 279.969 182.676 282.293 186.908 282.293Z" fill="white" stroke="white"/>
</mask>
<g mask="url(#mask6_4048_38531)">
<path id="Path 9" fill-rule="evenodd" clip-rule="evenodd" d="M175.263 256.775C175.263 256.775 184.579 282.342 193.895 280.693C203.21 279.043 207.092 265.848 207.092 265.848L189.237 255.951L175.263 256.775Z" fill="#B3E9D1"/>
</g>
</g>
<g id="Group 66">
<path id="Oval_4" d="M181.26 264.777C185.418 268.026 189.728 270.379 193.375 271.525C195.193 272.096 196.926 272.393 198.432 272.299C199.935 272.206 201.396 271.704 202.349 270.484C203.302 269.264 203.435 267.726 203.162 266.244C202.889 264.76 202.182 263.151 201.188 261.525C199.194 258.264 195.868 254.651 191.71 251.402C187.551 248.153 183.242 245.801 179.594 244.655C177.776 244.083 176.044 243.787 174.538 243.88C173.034 243.974 171.574 244.476 170.621 245.695C169.668 246.915 169.534 248.454 169.807 249.935C170.081 251.419 170.788 253.029 171.782 254.654C173.776 257.916 177.101 261.528 181.26 264.777Z" fill="white" stroke="#007E47"/>
<path id="Path 7" d="M178.726 248.133L177.903 248.969L178.515 249.969L179.794 249.186C178.515 249.969 178.515 249.97 178.515 249.97L178.516 249.97L178.516 249.972L178.519 249.976L178.527 249.99L178.559 250.04C178.586 250.084 178.626 250.147 178.676 250.227C178.778 250.388 178.925 250.618 179.112 250.901C179.484 251.466 180.013 252.245 180.643 253.103C181.88 254.788 183.595 256.902 185.326 258.255C187.035 259.589 189.847 261.026 192.119 262.092C193.277 262.636 194.334 263.101 195.102 263.431C195.487 263.596 195.799 263.727 196.017 263.818L196.268 263.922L196.335 263.949L196.353 263.956L196.358 263.958L196.359 263.959L196.36 263.959L196.923 262.569L196.36 263.959L197.54 264.437L198.203 263.351L202.867 255.717C203.847 254.114 204.116 251.953 203.717 250.242C203.515 249.376 203.103 248.461 202.345 247.814C201.523 247.114 200.455 246.869 199.315 247.142C197.373 247.606 195.564 248.774 194.259 249.618C194.186 249.665 194.114 249.712 194.044 249.757C193.802 249.913 193.584 250.052 193.387 250.174C193.477 249.891 193.583 249.576 193.701 249.223L193.704 249.215C193.974 248.413 194.292 247.467 194.519 246.518C194.745 245.573 194.909 244.519 194.812 243.502C194.691 242.233 194.085 241.226 193.128 240.591C192.226 239.993 191.144 239.81 190.141 239.842C188.16 239.907 185.921 240.832 184.452 242.322L178.726 248.133ZM192.2 250.778C192.201 250.777 192.213 250.774 192.235 250.772C192.21 250.778 192.2 250.779 192.2 250.778Z" fill="white" stroke="#007E47"/>
</g>
</g>
</g>
</g>
</g>
<defs>
<filter id="filter0_i_4048_38531" x="78" y="202.55" width="145.5" height="144" filterUnits="userSpaceOnUse" color-interpolation-filters="sRGB">
<feFlood flood-opacity="0" result="BackgroundImageFix"/>
<feBlend mode="normal" in="SourceGraphic" in2="BackgroundImageFix" result="shape"/>
<feColorMatrix in="SourceAlpha" type="matrix" values="0 0 0 0 0 0 0 0 0 0 0 0 0 0 0 0 0 0 127 0" result="hardAlpha"/>
<feOffset dx="-1" dy="-2"/>
<feComposite in2="hardAlpha" operator="arithmetic" k2="-1" k3="1"/>
<feColorMatrix type="matrix" values="0 0 0 0 0 0 0 0 0 0.494118 0 0 0 0 0.278431 0 0 0 1 0"/>
<feBlend mode="normal" in2="shape" result="effect1_innerShadow_4048_38531"/>
</filter>
<filter id="filter1_i_4048_38531" x="3" y="199.55" width="145.5" height="147" filterUnits="userSpaceOnUse" color-interpolation-filters="sRGB">
<feFlood flood-opacity="0" result="BackgroundImageFix"/>
<feBlend mode="normal" in="SourceGraphic" in2="BackgroundImageFix" result="shape"/>
<feColorMatrix in="SourceAlpha" type="matrix" values="0 0 0 0 0 0 0 0 0 0 0 0 0 0 0 0 0 0 127 0" result="hardAlpha"/>
<feMorphology radius="1" operator="erode" in="SourceAlpha" result="effect1_innerShadow_4048_38531"/>
<feOffset dy="-2"/>
<feComposite in2="hardAlpha" operator="arithmetic" k2="-1" k3="1"/>
<feColorMatrix type="matrix" values="0 0 0 0 0.701961 0 0 0 0 0.913725 0 0 0 0 0.819608 0 0 0 1 0"/>
<feBlend mode="normal" in2="shape" result="effect1_innerShadow_4048_38531"/>
</filter>
<filter id="filter2_i_4048_38531" x="19.8065" y="215.738" width="111.887" height="114.624" filterUnits="userSpaceOnUse" color-interpolation-filters="sRGB">
<feFlood flood-opacity="0" result="BackgroundImageFix"/>
<feBlend mode="normal" in="SourceGraphic" in2="BackgroundImageFix" result="shape"/>
<feColorMatrix in="SourceAlpha" type="matrix" values="0 0 0 0 0 0 0 0 0 0 0 0 0 0 0 0 0 0 127 0" result="hardAlpha"/>
<feMorphology radius="1" operator="erode" in="SourceAlpha" result="effect1_innerShadow_4048_38531"/>
<feOffset dy="-2"/>
<feComposite in2="hardAlpha" operator="arithmetic" k2="-1" k3="1"/>
<feColorMatrix type="matrix" values="0 0 0 0 0.701961 0 0 0 0 0.913725 0 0 0 0 0.819608 0 0 0 1 0"/>
<feBlend mode="normal" in2="shape" result="effect1_innerShadow_4048_38531"/>
</filter>
<filter id="filter3_i_4048_38531" x="36.4383" y="232.106" width="78.6235" height="81.8877" filterUnits="userSpaceOnUse" color-interpolation-filters="sRGB">
<feFlood flood-opacity="0" result="BackgroundImageFix"/>
<feBlend mode="normal" in="SourceGraphic" in2="BackgroundImageFix" result="shape"/>
<feColorMatrix in="SourceAlpha" type="matrix" values="0 0 0 0 0 0 0 0 0 0 0 0 0 0 0 0 0 0 127 0" result="hardAlpha"/>
<feMorphology radius="1" operator="erode" in="SourceAlpha" result="effect1_innerShadow_4048_38531"/>
<feOffset dy="-2"/>
<feComposite in2="hardAlpha" operator="arithmetic" k2="-1" k3="1"/>
<feColorMatrix type="matrix" values="0 0 0 0 0.701961 0 0 0 0 0.913725 0 0 0 0 0.819608 0 0 0 1 0"/>
<feBlend mode="normal" in2="shape" result="effect1_innerShadow_4048_38531"/>
</filter>
<filter id="filter4_i_4048_38531" x="63.2976" y="259.234" width="24.9047" height="27.6313" filterUnits="userSpaceOnUse" color-interpolation-filters="sRGB">
<feFlood flood-opacity="0" result="BackgroundImageFix"/>
<feBlend mode="normal" in="SourceGraphic" in2="BackgroundImageFix" result="shape"/>
<feColorMatrix in="SourceAlpha" type="matrix" values="0 0 0 0 0 0 0 0 0 0 0 0 0 0 0 0 0 0 127 0" result="hardAlpha"/>
<feMorphology radius="1" operator="erode" in="SourceAlpha" result="effect1_innerShadow_4048_38531"/>
<feOffset dy="-2"/>
<feComposite in2="hardAlpha" operator="arithmetic" k2="-1" k3="1"/>
<feColorMatrix type="matrix" values="0 0 0 0 0.701961 0 0 0 0 0.913725 0 0 0 0 0.819608 0 0 0 1 0"/>
<feBlend mode="normal" in2="shape" result="effect1_innerShadow_4048_38531"/>
</filter>
<filter id="filter5_i_4048_38531" x="182.844" y="290.917" width="78.097" height="52.1748" filterUnits="userSpaceOnUse" color-interpolation-filters="sRGB">
<feFlood flood-opacity="0" result="BackgroundImageFix"/>
<feBlend mode="normal" in="SourceGraphic" in2="BackgroundImageFix" result="shape"/>
<feColorMatrix in="SourceAlpha" type="matrix" values="0 0 0 0 0 0 0 0 0 0 0 0 0 0 0 0 0 0 127 0" result="hardAlpha"/>
<feOffset dy="-2"/>
<feComposite in2="hardAlpha" operator="arithmetic" k2="-1" k3="1"/>
<feColorMatrix type="matrix" values="0 0 0 0 0.678431 0 0 0 0 0.8 0 0 0 0 0.913725 0 0 0 1 0"/>
<feBlend mode="normal" in2="shape" result="effect1_innerShadow_4048_38531"/>
</filter>
<filter id="filter6_i_4048_38531" x="172.315" y="289.351" width="79.9517" height="55.0554" filterUnits="userSpaceOnUse" color-interpolation-filters="sRGB">
<feFlood flood-opacity="0" result="BackgroundImageFix"/>
<feBlend mode="normal" in="SourceGraphic" in2="BackgroundImageFix" result="shape"/>
<feColorMatrix in="SourceAlpha" type="matrix" values="0 0 0 0 0 0 0 0 0 0 0 0 0 0 0 0 0 0 127 0" result="hardAlpha"/>
<feOffset dy="-2"/>
<feComposite in2="hardAlpha" operator="arithmetic" k2="-1" k3="1"/>
<feColorMatrix type="matrix" values="0 0 0 0 0.701961 0 0 0 0 0.913725 0 0 0 0 0.819608 0 0 0 1 0"/>
<feBlend mode="normal" in2="shape" result="effect1_innerShadow_4048_38531"/>
</filter>
<filter id="filter7_i_4048_38531" x="231.435" y="294.121" width="85.1239" height="63.8906" filterUnits="userSpaceOnUse" color-interpolation-filters="sRGB">
<feFlood flood-opacity="0" result="BackgroundImageFix"/>
<feBlend mode="normal" in="SourceGraphic" in2="BackgroundImageFix" result="shape"/>
<feColorMatrix in="SourceAlpha" type="matrix" values="0 0 0 0 0 0 0 0 0 0 0 0 0 0 0 0 0 0 127 0" result="hardAlpha"/>
<feOffset dy="-2"/>
<feComposite in2="hardAlpha" operator="arithmetic" k2="-1" k3="1"/>
<feColorMatrix type="matrix" values="0 0 0 0 0.678431 0 0 0 0 0.8 0 0 0 0 0.913725 0 0 0 1 0"/>
<feBlend mode="normal" in2="shape" result="effect1_innerShadow_4048_38531"/>
</filter>
<filter id="filter8_i_4048_38531" x="156.737" y="267.029" width="24.6315" height="27.6313" filterUnits="userSpaceOnUse" color-interpolation-filters="sRGB">
<feFlood flood-opacity="0" result="BackgroundImageFix"/>
<feBlend mode="normal" in="SourceGraphic" in2="BackgroundImageFix" result="shape"/>
<feColorMatrix in="SourceAlpha" type="matrix" values="0 0 0 0 0 0 0 0 0 0 0 0 0 0 0 0 0 0 127 0" result="hardAlpha"/>
<feMorphology radius="1" operator="erode" in="SourceAlpha" result="effect1_innerShadow_4048_38531"/>
<feOffset dy="-1"/>
<feComposite in2="hardAlpha" operator="arithmetic" k2="-1" k3="1"/>
<feColorMatrix type="matrix" values="0 0 0 0 0.701961 0 0 0 0 0.913725 0 0 0 0 0.819608 0 0 0 1 0"/>
<feBlend mode="normal" in2="shape" result="effect1_innerShadow_4048_38531"/>
</filter>
<filter id="filter9_i_4048_38531" x="151.397" y="255.415" width="24.186" height="32.2405" filterUnits="userSpaceOnUse" color-interpolation-filters="sRGB">
<feFlood flood-opacity="0" result="BackgroundImageFix"/>
<feBlend mode="normal" in="SourceGraphic" in2="BackgroundImageFix" result="shape"/>
<feColorMatrix in="SourceAlpha" type="matrix" values="0 0 0 0 0 0 0 0 0 0 0 0 0 0 0 0 0 0 127 0" result="hardAlpha"/>
<feOffset dy="-1"/>
<feComposite in2="hardAlpha" operator="arithmetic" k2="-1" k3="1"/>
<feColorMatrix type="matrix" values="0 0 0 0 0.678431 0 0 0 0 0.8 0 0 0 0 0.913725 0 0 0 1 0"/>
<feBlend mode="normal" in2="shape" result="effect1_innerShadow_4048_38531"/>
</filter>
</defs>
</svg>
